<svg width="100%" height="100%" viewBox="0 0 100 100" xmlns="http://www.w3.org/2000/svg">
  <defs>
    <!-- Defender Gradient (Purple-Blue) -->
    <radialGradient id="defenderGradientFavicon" cx="50%" cy="50%" r="50%" fx="50%" fy="50%">
      <stop offset="0%" stop-color="#E6E6FA"/>
      <stop offset="40%" stop-color="#9370DB"/>
      <stop offset="80%" stop-color="#6A5ACD"/>
      <stop offset="100%" stop-color="#362F6B"/>
    </radialGradient>
    <!-- Asteroid Gradient Grey -->
    <radialGradient id="asteroidGradientGreyFavicon" cx="50%" cy="50%" r="50%" fx="50%" fy="50%">
      <stop offset="0%" stop-color="#b0b0b0"/>
      <stop offset="50%" stop-color="#707070"/>
      <stop offset="100%" stop-color="#202020"/>
    </radialGradient>
    <!-- Clip path for the asteroid and its craters -->
    <clipPath id="asteroidClipPathFavicon">
      <!-- Replicate the asteroid's main shape for clipping -->
      <path d="M0,0 L18,5 L25,18 L15,25 L3,20 L-5,10 L0,0 Z"/>
    </clipPath>
    <!-- Spark Gradient -->
    <radialGradient id="sparkGradientFavicon" cx="50%" cy="50%" r="50%" fx="50%" fy="50%">
      <stop offset="0%" stop-color="#FFFF00" stop-opacity="1"/>
      <stop offset="100%" stop-color="#FF4500" stop-opacity="0"/>
    </radialGradient>
    <!-- Satellite Laser Gradient (Red) -->
    <linearGradient id="satelliteLaserGradientFavicon" x1="0%" y1="50%" x2="100%" y2="50%">
      <stop offset="0%" stop-color="#FF0000" stop-opacity="0.3"/>
      <stop offset="50%" stop-color="#FFFFFF" stop-opacity="1"/>
      <stop offset="100%" stop-color="#FF0000" stop-opacity="0.3"/>
    </linearGradient>
  </defs>

  <!-- Background for contrast -->
  <rect x="0" y="0" width="100" height="100" fill="#0a0a0a"/>

  <!-- Static Stars (behind everything else) -->
  <g id="backgroundStarsFavicon" fill="#b0b0b0" opacity="0.5">
    <circle cx="15" cy="10" r="0.5"/>
    <circle cx="30" cy="5" r="0.8"/>
    <circle cx="45" cy="12" r="0.6"/>
    <circle cx="80" cy="60" r="0.7"/>
    <circle cx="90" cy="85" r="0.9"/>
    <circle cx="5" cy="90" r="0.4"/>
    <circle cx="20" cy="75" r="0.7"/>
    <circle cx="60" cy="95" r="0.5"/>
    <circle cx="70" cy="35" r="1.0"/>
    <circle cx="38" cy="80" r="0.6"/>
  </g>

  <!-- Asteroid (Simplified Grey Asteroid) -->
  <g transform="translate(80, -20) rotate(45) scale(2.5)" clip-path="url(#asteroidClipPathFavicon)">
    <path d="M0,0 L18,5 L25,18 L15,25 L3,20 L-5,10 L0,0 Z" fill="url(#asteroidGradientGreyFavicon)" stroke="#303030" stroke-width="2"/>
    <!-- Craters -->
    <!-- Large crater -->
    <circle cx="10" cy="5" r="4" fill="#101010" />
    <circle cx="10.5" cy="5.5" r="3.5" fill="#505050" opacity="0.7"/>
    <!-- Small crater 1 -->
    <circle cx="-7" cy="12" r="2.5" fill="#101010" />
    <circle cx="-6.5" cy="12.5" r="2" fill="#505050" opacity="0.7"/>
    <!-- Small crater 2 -->
    <circle cx="18" cy="15" r="2" fill="#101010" />
    <circle cx="18.5" cy="15.5" r="1.5" fill="#505050" opacity="0.7"/>
  </g>

  <!-- Defender Ship (Simplified A-shape) -->
  <g transform="translate(10, 90) rotate(0) scale(1.0)">
    <polygon points="0,-20 15,15 5,5 5,-5 -5,-5 -5,5 -15,15 0,-20" fill="url(#defenderGradientFavicon)" stroke="#362F6B" stroke-width="1"/>
  </g>

  <!-- Red Laser (from Defender to Asteroid) -->
  <g transform="translate(30, 68) rotate(-45)">
    <rect x="0" y="-1" width="50" height="2" rx="1" ry="1" fill="url(#satelliteLaserGradientFavicon)"/>
  </g>

  <!-- Sparks at laser-asteroid intersection -->
  <g transform="translate(58, 39)">
    <circle cx="0" cy="0" r="5" fill="url(#sparkGradientFavicon)" opacity="0.8"/>
    <circle cx="8" cy="-5" r="4.5" fill="url(#sparkGradientFavicon)" opacity="0.7"/>
    <circle cx="-7" cy="7" r="4" fill="url(#sparkGradientFavicon)" opacity="0.9"/>
    <circle cx="3" cy="8" r="3.5" fill="url(#sparkGradientFavicon)" opacity="0.6"/>
    <circle cx="-6" cy="-2" r="3" fill="url(#sparkGradientFavicon)" opacity="0.8"/>
  </g>
</svg>
